Coordinates
version=1
nRows=54
nColumns=12
inDegrees=yes

Units are S.I. units (second, meters, Newtons, ...)
Angles are in degrees

endheader
time	SC_y	SC_z	SC_x	AC_y	AC_z	AC_x	GH_y	GH_z	GH_yy	EL_x	PS_y
       0.0              -12.79          1.211          15.19          58.99          3.702          2.315         -122.3         -5.416           36.8          112.3          21.29
   0.02147              -12.79          1.214          15.19          58.99            3.7          2.316         -122.3          -5.41          36.79          112.3           21.3
   0.04294              -12.79          1.216          15.19          58.99          3.698          2.317         -122.3         -5.404          36.78          112.3          21.32
   0.06441              -12.78          1.219          15.19          58.99          3.697          2.319         -122.3         -5.397          36.77          112.3          21.34
   0.08588              -12.78          1.222          15.18          58.99          3.695           2.32         -122.3         -5.389          36.75          112.3          21.36
    0.1074              -12.78          1.226          15.18          58.99          3.693          2.322         -122.3         -5.381          36.74          112.3          21.38
    0.1288              -12.78          1.229          15.18          58.99          3.691          2.323         -122.3         -5.373          36.72          112.3          21.41
    0.1503              -12.78          1.233          15.18          58.99          3.689          2.325         -122.3         -5.364          36.71          112.3          21.43
    0.1718              -12.78          1.237          15.18          58.99          3.686          2.327         -122.3         -5.354          36.69          112.3          21.46
    0.1932              -12.78          1.241          15.18           59.0          3.684          2.329         -122.2         -5.343          36.67          112.3          21.49
    0.2147              -12.78          1.246          15.18           59.0          3.681          2.332         -122.2         -5.332          36.65          112.3          21.52
    0.2362              -12.78          1.251          15.18           59.0          3.678          2.334         -122.2          -5.32          36.63          112.3          21.56
    0.2576              -12.78          1.256          15.18           59.0          3.675          2.337         -122.2         -5.307          36.61          112.3          21.59
    0.2791              -12.78          1.262          15.18           59.0          3.672          2.339         -122.2         -5.293          36.58          112.3          21.63
    0.3006              -12.78          1.268          15.18           59.0          3.668          2.343         -122.2         -5.278          36.56          112.3          21.67
    0.3221              -12.78          1.275          15.18          59.01          3.664          2.346         -122.2         -5.261          36.53          112.3          21.72
    0.3435              -12.78          1.282          15.18          59.01           3.66          2.349         -122.1         -5.243           36.5          112.3          21.77
     0.365              -12.78           1.29          15.17          59.01          3.655          2.353         -122.1         -5.224          36.46          112.3          21.82
    0.3865              -12.78          1.299          15.17          59.01           3.65          2.358         -122.1         -5.203          36.42          112.3          21.88
    0.4079              -12.78          1.308          15.17          59.02          3.644          2.362         -122.1         -5.179          36.38          112.3          21.95
    0.4294              -12.78          1.319          15.17          59.02          3.638          2.368         -122.0         -5.154          36.34          112.3          22.02
    0.4509              -12.78           1.33          15.17          59.02          3.632          2.373         -122.0         -5.125          36.29          112.3           22.1
    0.4724              -12.78          1.343          15.17          59.03          3.624           2.38         -122.0         -5.094          36.23          112.3          22.19
    0.4938              -12.78          1.357          15.16          59.03          3.616          2.387         -121.9          -5.06          36.17          112.3          22.28
    0.5153              -12.78          1.373          15.16          59.04          3.607          2.394         -121.9         -5.021           36.1          112.3          22.39
    0.5368              -12.78           1.39          15.16          59.04          3.596          2.403         -121.9         -4.978          36.03          112.3          22.51
    0.5582              -12.77           1.41          15.16          59.05          3.585          2.413         -121.8          -4.93          35.94          112.3          22.64
    0.5797              -12.77          1.432          15.15          59.05          3.572          2.424         -121.8         -4.876          35.85          112.3          22.79
    0.6012              -12.77          1.457          15.15          59.06          3.557          2.436         -121.7         -4.815          35.74          112.3          22.96
    0.6227              -12.77          1.485          15.14          59.07           3.54           2.45         -121.6         -4.746          35.62          112.3          23.16
    0.6441              -12.77          1.518          15.14          59.08          3.521          2.466         -121.5         -4.667          35.48          112.3          23.38
    0.6656              -12.77          1.555          15.13          59.09            3.5          2.484         -121.4         -4.576          35.32          112.3          23.63
    0.6871              -12.76          1.598          15.13           59.1          3.474          2.506         -121.3         -4.472          35.13          112.3          23.92
    0.7085              -12.76          1.647          15.12          59.12          3.445           2.53         -121.2          -4.35          34.92          112.3          24.26
      0.73              -12.76          1.706          15.11          59.14          3.411          2.559         -121.1         -4.208          34.67          112.3          24.66
    0.7515              -12.75          1.774           15.1          59.16           3.37          2.593         -120.9          -4.04          34.37          112.3          25.13
    0.7729              -12.75          1.856          15.09          59.18          3.322          2.633         -120.7          -3.84          34.02          112.3          25.68
    0.7944              -12.74          1.954          15.07          59.21          3.265          2.682         -120.4         -3.601           33.6          112.3          26.35
    0.8159              -12.74          2.072          15.05          59.25          3.195           2.74         -120.1         -3.312          33.09          112.3          27.16
    0.8374              -12.73          2.217          15.03          59.29           3.11          2.811         -119.7         -2.959          32.47          112.3          28.14
    0.8588              -12.72          2.395           15.0          59.35          3.005            2.9         -119.3         -2.523           31.7          112.3          29.36
    0.8803               -12.7          2.618          14.97          59.41          2.875           3.01         -118.7         -1.979          30.74          112.3          30.87
    0.9018              -12.69          2.898          14.93           59.5           2.71          3.148         -118.0         -1.294          29.53          112.3          32.78
    0.9232              -12.67          3.254          14.87          59.61            2.5          3.324         -117.1        -0.4227          27.99          112.3          35.21
    0.9447              -12.64           3.71           14.8          59.74          2.232           3.55         -115.9          0.692          26.03          112.3          38.32
    0.9662              -12.61          4.296          14.71          59.92          1.888          3.839         -114.4          2.122          23.51          112.3          42.31
    0.9877              -12.56          5.043           14.6          60.15          1.449          4.208         -112.5           3.95          20.28          112.3          47.41
     1.009              -12.51          5.983          14.45          60.43         0.8961          4.673         -110.1          6.247          16.23          112.3          53.81
     1.031              -12.44          7.129          14.27          60.78         0.2227          5.239         -107.1          9.047          11.29          112.3          61.62
     1.052              -12.37          8.457          14.07          61.18        -0.5579          5.895         -103.7          12.29          5.571          112.3          70.67
     1.074              -12.28          9.895          13.85          61.62         -1.403          6.605         -100.0          15.81        -0.6255          112.3          80.47
     1.095               -12.2          11.33          13.63          62.05         -2.248          7.316         -96.34          19.32         -6.822          112.3          90.27
     1.116              -12.12          12.66          13.42          62.46         -3.029          7.972         -92.93          22.57         -12.55          112.4          99.32
     1.138              -12.06          13.81          13.25           62.8         -3.702          8.538         -89.99          25.37         -17.48          112.4          107.1
